<svg width="276" height="247" viewBox="0 0 276 247" fill="none" xmlns="http://www.w3.org/2000/svg">
<path d="M102.66 161.724L102.5 161.834M102.5 161.834V164.114L102.77 166.564L103.26 169.014L103.86 171.514L104.67 174.064L105.6 176.564L106.74 179.064L107.99 181.564L109.4 184.014L110.92 186.344L112.55 188.524L114.24 190.644L116 192.544L117.9 194.344L119.84 196.014L121.84 197.424L123.84 198.674L125.84 199.674L127.74 200.484L129.74 201.024L131.59 201.414L133.38 201.514L135.07 201.414L136.7 201.084L138.22 200.484L139.58 199.674L140.88 198.674L141.97 197.424L142.97 196.004L143.73 194.374L144.38 192.584L144.82 190.584L145.09 188.524V186.454M102.5 161.834H102.44V161.884H102.22L102.16 161.834H102.5ZM145 186.624V188.794L144.73 190.864L144.29 192.764L143.69 194.564L142.93 196.134L142.06 197.604L140.98 198.804L139.78 199.884L138.42 200.704L137.01 201.354L135.43 201.734L133.8 201.894H132L130.21 201.624L128.3 201.134L126.56 200.484M102.06 161.834V159.664L102.34 157.594L102.77 155.694L103.37 153.894L104.13 152.324L105.05 150.854L106.05 149.604L107.24 148.604L108.6 147.784L110.02 147.134L111.59 146.754L113.28 146.534H114.58M146.58 184.534V185.244L146.69 187.634L146.58 189.914L146.31 192.094L145.88 194.164L145.28 196.004L144.52 197.744L143.52 199.274L142.43 200.624L141.23 201.774L139.82 202.694L138.35 203.454L136.72 203.944L135.04 204.214L133.24 204.274L131.34 204.054L129.34 203.614L127.34 203.024L125.34 202.154L123.34 201.064M215.46 157.014L210 160.144M185.78 146.174V78.4943L215.46 61.4143M215.57 61.2643L215.51 61.3243M179.8 80.2943V142.754M185.8 146.174V78.5543M179.49 142.554V80.2343M120.71 46.3143V135.084M120.6 46.1543H120.65M120.6 46.1543L120.71 46.2143H120.65V46.1543M120.6 46.1543L120.65 46.0943M120.6 46.1543V135.364M120.65 46.1543V46.0943M139.3 25.4943L138.1 25.3843L136 25.3343L134.09 25.5443L132.25 25.9843L130.51 26.6343L128.88 27.5043L127.41 28.5943L126.05 29.8443L124.8 31.3143L123.75 33.0143L122.83 34.8643L122.07 36.8643L121.47 39.0443L121 41.3143L120.79 43.7643L120.68 46.3143M179.76 80.2843L179.7 77.6143L179.43 74.8443L179 72.0143L178.44 69.1843L177.68 66.2443L176.75 63.3143L175.67 60.4243L174.42 57.4943L173.06 54.6143L171.54 51.7843L169.9 49.0143L168.19 46.3443L166.35 43.7943L164.35 41.3443L162.35 39.0143L160.25 36.8043L158.07 34.8043L155.9 32.8943L153.62 31.2143L151.39 29.7443L149.1 28.4443L146.87 27.2943L144.59 26.4243L142.42 25.7243L140.24 25.2843L138.12 25.0143H136L134.1 25.2243L132.26 25.6543L130.52 26.3143L128.89 27.1743L127.36 28.2643L126 29.5743L124.78 31.0143L123.7 32.7343L122.77 34.5843L122.01 36.5843L121.41 38.7543L120.98 41.0943L120.71 43.5443L120.65 46.0943M185.76 78.5443L185.65 75.8243L185.4 73.0143L185 70.1243L184.4 67.1943L183.64 64.1943L182.72 61.1943L181.63 58.1943L180.38 55.1943L179 52.2943L177.48 49.3543L175.85 46.5343L174 43.7643L172.15 41.0943L170.15 38.5443L168.08 36.0943L166 33.8143L163.83 31.6343L161.55 29.6343L159.26 27.8443L157 26.2043L154.66 24.7343L152.38 23.5343L150.04 22.5343L147.76 21.7143L147.38 21.5543M144.77 186.324L144.93 186.214M132.05 68.2143V58.8143M133.19 68.9243V58.8143M161.48 84.0143V85.2643M125.54 114.354H125.44M141.31 103.154H141.2H139.3L138.1 103.424L137 104.014L136.13 104.664L135.7 105.374L135.64 106.074M136.57 107.854L135.91 107.414L135.37 106.764L135 106.014V105.094L135.49 104.094L136.58 103.224L138.1 102.574L139.78 102.244H141.36M139.35 114.094L141.35 112.954M139.35 114.094L140.16 114.364L140.87 114.254L139.35 114.094ZM177.29 123.884H177.24L175.24 123.934L174.1 124.204L172.96 124.744L172.09 125.404L171.6 126.104L171.55 126.814M172.51 128.584L171.86 128.154L171.26 127.554L170.88 126.744V125.814L171.43 124.814L172.51 123.944L173.98 123.294L175.67 122.974H177.24M175.31 134.894L177.21 133.804M175.31 134.894L176.12 135.164L176.83 135.054L175.31 134.894ZM125.6 42.1843L123.6 43.3743M123.6 43.3743L123.77 42.5143L124.25 41.9643L123.6 43.3743ZM125.49 42.1243L125.43 42.0743V41.9043L125.49 42.1243ZM125.49 42.1243L139 49.9543M139 49.9543H138.94V49.8943L138.88 49.7943V49.7343L139 49.9543ZM139 49.9543L139.87 50.6643L140.57 51.6643L141.06 52.8043L141.28 53.9443L139 49.9543ZM161.48 63.0143L159.58 64.1543M159.58 64.1543L159.74 63.2843L160.23 62.7443L159.58 64.1543ZM175 70.7243L174.95 70.6643L174.89 70.6143V70.4543L175 70.7243ZM175 70.7243L161.45 62.9143M175 70.7243L175.87 71.4343L176.63 72.4343L177.12 73.5843L177.28 74.7243L175 70.7243ZM138.29 104.344L139 104.014L139.93 104.034L140.8 103.984L141.4 104.034L138.29 104.344ZM138.29 104.344L137.75 104.774L137.42 105.214V105.754L137.63 106.244L138.01 106.684L138.67 107.064L139.43 107.334L140.3 107.444L141.22 107.384H141.33M141.33 107.664H140.33L139.33 107.554L138.46 107.284L137.81 106.844L137.32 106.354L137.1 105.814L137.15 105.274L137.53 104.724L137.75 104.514M174.28 125.064L174.99 124.734L175.86 124.574L176.73 124.514L177.27 124.574L174.28 125.064ZM174.28 125.064L173.74 125.494L173.47 125.934L173.36 126.474L173.58 126.964L174.01 127.394L174.61 127.774L175.42 128.054L176.29 128.154H177.16H177.27M177.27 128.424H177.22L176.22 128.484L175.3 128.374L174.43 128.104L173.72 127.664L173.23 127.174L173.01 126.634L173.12 126.084L173.45 125.544L173.72 125.324M128 127.504L128.11 127.444L129.8 126.844L131.59 126.414L133.49 126.254H135.49L137.49 126.584L139.61 127.074L141.73 127.774L143.9 128.774L146 130.014M146 130.014H146.01V130.164L146 130.014ZM146 130.014L146.39 129.384L146.82 128.784L147.26 128.234L147.64 127.644L148.08 127.094L148.51 126.554L149 126.014L149.42 125.504M146 130.014L149.42 125.504M146 130.014L228.79 177.854M149.42 125.504L147.14 124.254L144.86 123.254L142.57 122.444L140.35 121.894L138.23 121.574L136.11 121.464L134.11 121.624L133.46 121.734M149.42 125.504L232.22 173.344M135.25 126.574H133.45L131.55 126.734L129.76 127.114L128.12 127.764L126.55 128.584L125.08 129.584L123.78 130.834L122.63 132.304L121.63 133.934L120.76 135.734L120.7 135.834M153.64 196.774L228.72 240.104L230.89 241.244L233.01 242.244L235.13 242.954L237.2 243.444L239.26 243.764L241.26 243.824L243.11 243.654L244.9 243.224L246.59 242.624L248.17 241.814L249.58 240.814L250.88 239.564L252.03 238.104L253.03 236.464L253.57 235.384M256.34 240.344L257.16 239.344L258.3 237.664L259.3 235.814L260.06 233.814L260.71 231.634L261.15 229.244L261.42 226.794L261.53 224.194L261.42 221.474L261.15 218.704L260.71 215.814L260.06 212.934L259.3 210.004L258.3 207.004L257.16 204.064L255.91 201.064L254.55 198.014L253 195.154L251.31 192.334L249.52 189.664L247.52 187.114L245.57 184.664L243.45 182.324L241.33 180.154L239.1 178.154L236.81 176.354L234.53 174.724L232.25 173.314M228.82 177.824L231 179.184L233.17 180.704L235.29 182.444L237.41 184.354L239.41 186.414L241.41 188.644L243.26 190.984L245.06 193.484L246.74 196.034L248.32 198.704L249.79 201.424L251.09 204.194L252.23 206.964L253.23 209.794L254.1 212.564L254.75 215.394L255.29 218.104L255.62 220.824L255.84 223.434V225.934L255.62 228.324L255.29 230.614L254.75 232.734L254.1 234.734L253.23 236.524L252.23 238.214L251.09 239.624L249.79 240.934L248.32 241.934L247.99 242.094M23.6701 171.234V171.454L23.7201 171.564H23.8301L23.6701 171.234ZM23.6701 171.234V160.879V150.524V110.354M23.6701 171.254L22.5801 170.554L21.6601 169.734L21.0101 168.864L20.5701 167.864L20.4101 166.944L20.3501 166.674L23.6701 171.254ZM23.6701 171.254L24.9201 171.914L26.3301 172.404L27.8601 172.784L29.4901 173.054L31.1201 173.164L32.8001 173.104L34.4301 172.944L36.0101 172.614L37.4801 172.184L38.8401 171.584L40.0001 170.914L41.0001 170.154L41.7601 169.284L42.3101 168.354L42.6301 167.434L42.6901 166.674M20.3501 146.014L20.4101 146.224L20.5701 147.224L21.0101 148.154L21.6601 149.024L22.5801 149.834L23.6701 150.594L20.3501 146.014ZM20.3501 146.014V166.724M20.3501 146.014V105.784M20.4101 106.014L20.5601 107.014L21.0001 108.014L21.6601 108.904L22.5801 109.714L23.6701 110.424L20.4101 106.014ZM20.4101 106.014L20.3501 105.744M23.6701 150.484L24.9201 151.084L26.3301 151.624L27.8601 152.004L29.4901 152.224L31.1201 152.334H32.8001L34.4301 152.114L36.0101 151.794L37.4801 151.354L38.8401 150.814L40.0301 150.104L41.0301 149.344L41.7901 148.474L42.3401 147.554L42.6601 146.624L42.7201 145.924M42.7201 105.744L42.6601 106.504L42.3401 107.434L41.7901 108.354L41.0301 109.224L40.0001 110.014L38.8101 110.674L37.4501 111.264L36.0001 111.714L34.4201 112.034L32.7901 112.204H31.1101L29.4801 112.094L27.8501 111.824L26.3201 111.444L24.9201 111.014L23.6701 110.364M42.7001 163.584L43.7801 163.804L45.3601 164.074L47.0501 164.184L48.7301 164.124L50.3601 163.964L51.9401 163.634L53.4101 163.204L54.7701 162.604L55.9101 161.954L56.3401 161.624M42.7001 142.804L43.7801 143.074L45.3601 143.294L47.0501 143.404H48.7301L50.3601 143.234L51.9401 142.914L53.4101 142.474L54.7701 141.874L55.9101 141.224L56.3401 140.954M58.6301 96.8143L58.5701 97.5743L58.2401 98.5043L57.7001 99.4243L56.9401 100.244L55.9401 101.054L54.8001 101.714L53.4401 102.304L51.9701 102.744L50.3901 103.064L48.7601 103.234H47.0801L45.3901 103.124L43.8101 102.854L42.2901 102.474L40.8501 102.014H40.7401M55.2001 91.9243H55.0901H55.0001H54.8901H54.7801H55.2001ZM55.2001 91.9243L54.5501 91.5943L53.3001 91.0143L51.8801 90.5843L50.4201 90.2543L48.8901 90.0943L47.3201 90.0343L45.7401 90.0943L44.2201 90.3043L42.7501 90.6343L41.3901 91.0643L40.1401 91.6643L39.0001 92.3643L38.0001 93.1243L37.2401 93.9943L36.7001 94.9143L36.3701 95.9143L36.2601 96.9143L36.3201 97.1243M78.7001 184.344L79.7001 184.554L81.3301 184.824L82.9601 184.934H84.6401L86.2801 184.774L87.8501 184.444L89.3201 184.014L90.6801 183.414L91.8701 182.754L92.8701 181.944L93.6301 181.124L94.2301 180.204L94.5001 179.284L94.6101 178.514M78.6801 163.554L79.6801 163.824L81.3101 164.044L82.9401 164.154L84.6201 164.094L86.2601 163.934L87.8301 163.604L89.3001 163.174L90.6601 162.574L91.8501 161.924L92.8501 161.164L93.6101 160.294L94.2101 159.364L94.4801 158.444L94.5901 157.734M94.6101 117.564L94.5001 118.324L94.2301 119.244L93.6301 120.174L92.8701 120.984L91.8701 121.804L90.6801 122.454L89.3201 123.054L87.8501 123.484L86.2801 123.814L84.6401 123.974L83.0001 124.014L81.3701 123.904L79.7401 123.634L78.2201 123.254L76.8001 122.764L76.7501 122.704M59.6001 192.014V192.174L59.6601 192.234L59.7101 192.344L59.7701 192.394L59.6001 192.014ZM59.6001 192.014V171.294M59.6001 191.994L58.5201 191.284L57.6501 190.474L56.9401 189.604L56.5101 188.674L56.3401 187.674V187.394L59.6001 191.994ZM59.6001 191.994L60.8501 192.644L62.2701 193.134L63.7901 193.514L65.4201 193.784L67.1101 193.894H68.7401L70.4201 193.734L72.0001 193.404L73.4701 192.964L74.7701 192.374L75.9701 191.714L76.9701 190.954L77.7801 190.084L78.3201 189.164L78.6501 188.244V187.474M56.3401 166.724V166.944L56.5101 167.944L56.9401 168.864L57.6501 169.734L58.5201 170.554L59.6001 171.314L56.3401 166.724ZM56.3401 166.724V187.434M56.3401 166.724V126.554M59.6001 171.294L60.8501 171.894L62.2701 172.434L63.7901 172.814L65.4201 173.034L67.1101 173.144H68.7401L70.4201 172.924L72.0001 172.594L73.4701 172.164L74.7701 171.614L75.9701 170.914L76.9701 170.154L77.7801 169.284L78.3201 168.354L78.6501 167.434V166.724M59.6001 171.294V131.124M78.6501 126.554V127.314L78.3201 128.234L77.7801 129.164L77.0001 130.014L76.0001 130.774L74.8001 131.424L73.5001 132.024L72.0301 132.454L70.4501 132.784L68.7701 132.944L67.1401 133.004L65.4501 132.894L63.8201 132.624L62.3001 132.244L60.8801 131.754L59.6301 131.104M136.51 130.794L137 131.014L137.54 131.114L138.03 131.274L138.52 131.444L139.01 131.544L139.5 131.654L139.93 131.714L140.42 131.824L136.51 130.794ZM136.51 130.794L135.96 130.634L135.64 130.524H135.42L136.51 130.794ZM141 132.014V131.954L140.84 131.904H140.35L141 132.014ZM141 132.014L141.94 132.424L142.81 132.854L143.68 133.294L144.55 133.784L145.47 134.324L146.34 134.874L147.21 135.464L148.08 136.064M141 132.014L148.08 136.064M141 132.014L139.64 132.724L138.28 133.424L136.87 134.134L135.4 134.784L134.4 135.224L133.4 135.604L132.32 135.924L131.72 136.094L131.12 136.254L130.58 136.364L130.09 136.414L129.65 136.474H129.22L128.89 136.414L128.67 136.304L128.56 136.144V135.984V135.764L128.73 135.434L129 135.014L129.82 134.254L130.82 133.494L131.91 132.734L133.05 132.024L134.24 131.264L135.44 130.504M141 132.014L135.44 130.504M149.25 136.794L149.74 137.284L150.18 137.774L150.67 138.214L151.16 138.644L151.65 139.084L152.13 139.514L152.62 139.894L153.17 140.274M149.25 136.794L153.17 140.274M149.25 136.794L148.71 136.304L148.38 136.094L148.28 136.034H148.22L149.25 136.794ZM153.17 140.274L153.66 140.654L153.82 140.924V141.034L153.17 140.274ZM150 191.014L151.63 190.094L153.32 189.334L154.84 188.734L155.6 188.464L156.36 188.244L157.07 188.084H157.56H157.99L158.21 188.144L158.32 188.244L158.43 188.464V188.734L158.32 189.064L158.1 189.394L157.83 189.714L157.5 190.094L156.96 190.644L156.25 191.294L154.95 192.294L153.64 193.294L151 195.104L148.44 196.624L150 191.014ZM150 191.014L149.54 191.454L149.11 191.894L148.46 192.704L147.69 194.394V195.804L147.96 196.404L148.18 196.564L148.45 196.674M150 191.014L148.45 196.674M150 191.014L150.11 190.544L150.16 190.054L150.22 189.624V189.134V188.134L150.28 187.644V187.104L150 191.014ZM140.88 204.014L143.48 202.494L146.2 200.974L147.61 200.214L149.13 199.394L149.95 198.964L150.66 198.584L151.09 198.364L151.42 198.144L151.8 197.984L152.01 197.824L152.18 197.714L152.23 197.654L152.12 197.714L151.85 197.874L151.47 198.034L150.93 198.314L150.28 198.694L149.62 199.014L148.21 199.834L146.63 200.644L145 201.574L140.88 204.014ZM140.88 204.014L140.66 204.064M140.88 204.014L140.71 204.064L140.6 204.014L140.71 203.854L141.53 203.254L142.94 202.494L143.94 202.114L144.48 201.894L144.97 201.624M140.88 204.014L144.97 201.624M163.82 190.804L162.51 191.564L161.15 192.374L159.85 193.194L158.43 194.004L157.02 194.874L155.55 195.744L154.74 196.294L154.03 196.724L153.6 196.944L153.27 197.164L152.89 197.374L152.62 197.544L163.82 190.804ZM163.82 190.804L164.36 190.314L164.85 189.764L165.34 189.224L165.77 188.574L166.21 187.974L166.59 187.264L166.97 186.564L167.29 185.854M163.82 190.804L167.29 185.854M167.29 185.854L166.04 186.504L164.79 187.214L163.54 187.814L162.35 188.354L161.59 188.684L160.83 188.954L160.17 189.114L159.79 189.224H159.52L159.25 189.174L159.09 189.114L158.98 189.004L158.92 188.784V188.514L159.09 188.194L159.3 187.814L159.58 187.484L159.85 187.104L160.45 186.454L161.1 185.794L162.4 184.654L163.65 183.654L164.96 182.734L166.26 181.864L167.51 180.994L168.82 180.234L167.29 185.854ZM154.68 195.914L157.24 194.394L159.85 192.814L161.21 191.944L162.62 190.944L163.38 190.454L164.03 189.964L164.36 189.644L164.69 189.424L164.96 189.154L165.17 188.884L165.28 188.714V188.554H165.23L165.12 188.494H164.79L164.36 188.604L163.76 188.764L163.05 189.044L162.29 189.364L160.83 190.074L159.25 190.884L157.62 191.814L154.68 195.914ZM154.68 195.914L153.05 196.834L151.48 197.704L150.06 198.474L149.36 198.794L148.7 199.124L148.16 199.344L147.72 199.504L147.45 199.554L147.34 199.504V199.444V199.344L147.45 199.124L147.67 198.904L147.94 198.574L148.26 198.304L148.59 198.034L149.19 197.494L149.89 196.894L151.25 195.894L152.56 194.974L155.17 193.234L157.67 191.764L154.68 195.914ZM144.97 201.624L145.52 201.134L146.01 200.594L146.49 200.044L146.93 199.444L147.36 198.794L147.74 198.144L148.13 197.434L148.45 196.674M144.97 201.624L148.45 196.674M159.46 185.014L159.35 184.084L159.3 183.214L159.25 182.344V180.664L159.3 179.844L159.35 179.034L159.46 178.274V185.014ZM159.46 185.014L157.83 185.884L156.15 186.694L154.62 187.294L153.81 187.564L153.05 187.734L152.34 187.834H151.74L151.31 187.734L151.09 187.624L150.93 187.454L150.76 187.184V186.864L159.46 185.014ZM138 141.124L137.24 140.794L136.54 140.474L135.83 140.084L135.07 139.704L134.36 139.274L133.6 138.784L132.89 138.294L132.19 137.754L138 141.124ZM138 141.124L136.26 142.044L134.47 142.914L132.57 143.624L131.57 143.944L130.48 144.274L129.48 144.494L128.61 144.604H127.79H127.3H126.92L126.49 144.494L126.16 144.384L125.95 144.164L125.78 143.944L125.73 143.674V143.464L125.89 143.024L126.16 142.484L126.87 141.614L127.79 140.794L129.79 139.224L132.18 137.754M138 141.124L132.18 137.754M138 141.124L140.23 139.674L142.3 137.984L143.17 137.124L143.87 136.124L144.15 135.574L144.31 135.084V134.814L144.25 134.594L144.15 134.324L143.87 134.114L143.55 134.004L143.11 133.894H142.24L141.48 133.944L140.56 134.164L139.56 134.434L138.56 134.764L137.56 135.144L135.71 135.954L133.86 136.824L132.18 137.754M160.46 149.604L160.13 148.954L159.86 148.674L159.8 148.574H159.69L160.46 149.604ZM160.46 149.604L160.78 150.254L161.11 150.854L161.43 151.504L161.81 152.104L162.19 152.754L162.52 153.354L162.96 153.954L163.34 154.554M160.46 149.604L163.34 154.554M163.34 154.554L163.72 155.204L163.83 155.524V155.694L163.34 154.554ZM138.37 200.014L139.57 199.574M109.57 147.574L108.57 148.334M123.69 149.494L121.89 148.494L119.89 147.734L117.98 147.134L116.08 146.754L114.29 146.644L112.6 146.754L110.97 147.084L109.45 147.684L108 148.514L106.75 149.514L105.61 150.714L104.68 152.124L103.87 153.754L103.27 155.554L102.78 157.554L102.51 159.614V161.844M123.58 201.034L121.52 199.784L119.52 198.314L117.52 196.634L115.52 194.834L113.67 192.834L111.88 190.714L110.14 188.484L108.51 186.144L107.04 183.704L105.68 181.144L104.43 178.594L103.37 176.014L102.44 173.404L101.63 170.794L101.03 168.184L100.59 165.634L100.32 163.184L100.21 160.794L100.32 158.454L100.59 156.334L101.03 154.264L101.63 152.364L102.44 150.684L103.37 149.154L104.45 147.794L105.7 146.654L107.06 145.654L108.53 144.954L110.16 144.464L111.9 144.194L113.69 144.134L115.54 144.354L117.54 144.734L119.54 145.384L121.54 146.254L123.6 147.344M126.6 200.454L126.49 200.404L124.49 199.534L122.59 198.394L120.68 197.084L118.78 195.614L116.9 194.014L115.05 192.164L113.37 190.164L111.68 188.104L110.11 185.874L108.69 183.584L107.33 181.194L106.14 178.754L105.14 176.304L104.22 173.804L103.46 171.354L102.86 168.854L102.43 166.464L102.15 164.124V161.844M114.76 146.564H115.14L116.99 146.844L118.84 147.334L120.74 148.034L122.65 148.904L124.55 150.044L126.55 151.354L128.4 152.824L130.31 154.504L132.1 156.294L133.84 158.294L135.47 160.354L137.05 162.584L138.46 164.864L139.82 167.264L141.02 169.654L142.1 172.154L142.97 174.654L143.73 177.104L144.33 179.604L144.77 181.994L145.04 184.334V186.614M169 176.244L168.46 176.564M169 176.244V174.714L168.95 174.174V173.634V173.144L168.89 172.594L168.84 172.054M169 176.244L168.84 172.054M168.84 172.054L167.53 172.704L166.23 173.354L164.92 173.954L163.67 174.444L162.75 174.664L161.88 174.884H161.06H160.57H160.19L159.81 174.774L159.54 174.604L159.27 174.444L159.05 174.124L158.94 173.744V173.354L159 172.874L159.11 172.484L159.32 172.004L159.7 171.344L160.25 170.584L161.25 169.334L162.39 168.244L163.59 167.244L164.78 166.374L166.03 165.504L167.28 164.684M168.84 172.054L167.28 164.684M167.28 164.684L166.96 163.544L166.58 162.404L166.2 161.314L165.76 160.174L165.33 159.034L164.84 157.894L164.35 156.804L163.81 155.664M167.28 164.684L163.81 155.664M163.81 155.664L162.5 156.314L161.14 156.964L159.78 157.514L158.37 157.994L157.45 158.274L156.45 158.434L155.53 158.544L154.93 158.484L154.44 158.434L153.95 158.374L153.57 158.214L153.19 157.994L152.86 157.724L152.59 157.404L152.43 156.964L152.38 156.534L152.43 156.154V155.714L152.71 155.004L153.09 154.304L153.96 153.104L154.96 152.014L156.05 151.094L157.24 150.224L158.44 149.354L159.63 148.544M163.81 155.664L159.63 148.544M159.63 148.544L158.98 147.544L158.22 146.544L157.51 145.544L156.75 144.614L155.99 143.694L155.18 142.764L154.42 141.894L153.6 141.024M159.63 148.544L153.6 141.024M153.6 141.024L152.24 141.684L150.88 142.334L149.47 142.984L148.06 143.524L147.06 143.804L145.98 144.074L144.98 144.234L144.38 144.294L143.79 144.344L143.24 144.294L142.81 144.234L142.37 144.124L141.94 143.964L141.61 143.694L141.34 143.424L141.23 143.094V142.764V142.444L141.39 141.894L141.72 141.304L142.54 140.304L143.46 139.384L144.55 138.514L145.69 137.644L146.88 136.884L148.08 136.064M153.6 141.024L148.08 136.064M135.44 130.504L134.62 130.444H133.86H133.05H132.29L131.52 130.554L130.82 130.664L130.06 130.824L129.4 131.044M135.44 130.504L129.4 131.044M129.4 131.044L128.05 131.804L126.69 132.564L125.33 133.324L123.91 134.144L122.91 134.684L121.91 135.234L120.91 135.774L120.37 136.104L119.82 136.374L119.33 136.644L118.9 136.864L118.57 137.084L118.19 137.244L117.97 137.404L129.4 131.044ZM150.76 186.844L150.28 187.114M150.76 186.844V186.464L150.93 186.084L151.09 185.694L151.31 185.264L151.74 184.614L152.34 183.904L153.43 182.704L154.62 181.704L157.02 179.854L159.46 178.284M150.76 186.844L159.46 178.284M159.46 178.284L161.09 177.414L162.78 176.654L164.41 176.054L165.22 175.834L166.04 175.674L166.8 175.564H167.4L167.89 175.674L168.16 175.844L168.32 176.004L168.49 176.224L168.54 176.544L159.46 178.284ZM149.76 153.304L152.15 151.784L154.27 149.934L155.19 148.934L156.01 147.784L156.33 147.134L156.55 146.484V145.724L156.44 145.344L156.28 145.014L155.95 144.694L155.57 144.474L155.19 144.314L154.76 144.204L154 144.144H153.11L152.11 144.254L151.11 144.474L150.11 144.744L148.26 145.394L146.47 146.154L144.78 147.084L149.76 153.304ZM149.76 153.304L148.07 154.224L146.28 154.984L144.48 155.584L143.48 155.854L142.48 156.024L141.48 156.134H140.61L139.91 156.024L139.47 155.854L139.09 155.694L138.71 155.474L138.44 155.154L138.22 154.824L138.11 154.444V154.114V153.734L138.28 153.084L138.6 152.434L139.36 151.344L140.29 150.344L142.35 148.554L144.74 147.034L149.76 153.304ZM157.7 169.374L160.09 167.794L162.37 165.894L163.37 164.804L164.37 163.614L164.8 162.904L165.13 162.194L165.29 161.764L165.34 161.384V160.944L165.23 160.514L165.07 160.134L164.8 159.864L164.47 159.644L164.15 159.484L163.5 159.314L162.73 159.264H161.81L160.89 159.424L159.96 159.644L158.22 160.184L156.43 160.944L154.74 161.874L157.7 169.374ZM157.7 169.374L156.01 170.244L154.27 171.004L152.59 171.544L151.66 171.764L150.79 171.934H149.92L149.16 171.824L148.57 171.664L148.19 171.494L147.91 171.284L147.64 171.014L147.48 170.634L147.37 170.194V169.764V169.374L147.48 168.944L147.81 168.234L148.19 167.534L149.11 166.334L150.11 165.244L152.28 163.344L154.67 161.824L157.7 169.374ZM125.44 135.774L127.77 134.364L129.84 132.954L130.76 132.244L131.52 131.534L131.85 131.214L132.01 130.944L132.07 130.834L132.01 130.724L131.91 130.664H131.42L131.04 130.774L130.65 130.944L130.22 131.104L129.51 131.374L128.64 131.804L127.64 132.244L126.64 132.784L125.64 133.274L123.85 134.274L122.06 135.274L120.37 136.274L125.44 135.774ZM125.44 135.774L123.7 136.774L121.9 137.704L120.05 138.624L119.05 139.064L118.05 139.544L117.05 139.924L116.18 140.314L115.42 140.584L114.98 140.694L114.6 140.794L114.22 140.904L113.95 140.964L113.73 140.904L113.63 140.854V140.794V140.694L113.79 140.474L114.12 140.204L114.93 139.604L115.86 138.954L118 137.804L120.39 136.394L125.44 135.774ZM147.14 187.764L147.08 190.044L146.81 192.274L146.38 194.274L145.72 196.184L144.96 197.924L143.96 199.494L142.88 200.854L141.64 202.014M141.64 202.014L140.28 203.014L138.75 203.724L137.12 204.214L135.38 204.484L133.54 204.534L131.69 204.374L129.69 203.944L127.69 203.284L125.62 202.414L123.62 201.334L121.58 200.014M141.64 202.014L142.93 200.834L144.01 199.474L145.01 197.904L145.77 196.164L146.43 194.254L146.86 192.254L147.13 190.024L147.19 187.744L147.13 185.294L146.86 182.794L146.43 180.244L145.77 177.634L145.01 174.974L144.01 172.304L142.93 169.694L141.68 167.084L140.32 164.534L138.79 162.084L137.16 159.694L135.42 157.414L133.58 155.294L131.73 153.294L129.73 151.454L127.73 149.764L125.66 148.294L123.66 146.994M121.58 200.014L119.51 198.484L117.51 196.854L115.51 195.004L113.6 193.004L111.76 190.834L110.02 188.604L108.39 186.214L107 183.744L105.58 181.184L104.33 178.634L103.26 176.014L102.26 173.354L101.5 170.744L100.9 168.134L100.46 165.524L100.19 163.024L100.08 160.634L100.19 158.294L100.46 156.124L100.9 154.054L101.5 152.154L102.26 150.414L103.26 148.894L104.34 147.534L105.59 146.334L107.01 145.414L108.48 144.654L110.11 144.164L111.85 143.894L113.69 143.834L115.6 144.054L117.6 144.484L119.6 145.084L121.67 145.954L123.73 147.044M121.58 200.014L123.62 201.354M126.29 149.084L127.6 150.084L129.6 151.714L131.6 153.564L133.5 155.514L135.3 157.634L136.98 159.924L138.61 162.254L140 164.714L141.41 167.274L142.61 169.824L143.7 172.434L144.7 175.044L145.46 177.654L146.06 180.264L146.49 182.814L146.71 184.554M100.1 160.584L100.21 158.244L100.48 156.074L100.92 154.004L101.52 152.104L102.28 150.364L103.28 148.844L104.36 147.484L105.61 146.284L107.03 145.364L108.5 144.604L110.13 144.114L111.87 143.844L113.71 143.784L115.62 144.004L117.62 144.434L119.62 145.034L121.69 145.904L123.75 146.994L125.75 148.294L127.82 149.764L129.82 151.454L131.82 153.294L133.67 155.294L135.51 157.414L137.25 159.694L138.88 162.084L140.41 164.534L141.77 167.084L143.02 169.694L144.1 172.304L145.1 174.974L145.86 177.634L146.52 180.244L146.95 182.794L147.22 185.294L147.28 187.744M147.28 187.744L147.71 187.694L148.09 187.634H148.53L148.91 187.574L149.29 187.524L149.67 187.414L149.99 187.304L150.38 187.144L147.28 187.744ZM106.41 144.344L106.3 144.504V144.554H106.86L107.78 144.174L109.14 143.254L109.96 142.654L110.45 142.324L110.88 142.004L106.41 144.344ZM106.41 144.344L106.25 144.504M215.49 156.974L215.44 159.584L215.16 162.084L215 163.014L215.49 156.974ZM215.49 156.974H215.55V156.864L215.49 156.974ZM215.44 157.024V61.3743M184.53 7.66426H184.64L186.92 9.08426L189.26 10.7143L191.49 12.5043L193.71 14.5043L195.89 16.6243L198 19.0143L200.07 21.4043L202 23.9143L203.85 26.5843L205.59 29.3543L207.22 32.1843L208.74 35.0643L210.13 38.0143L211.33 40.9543L212.42 43.9543L213.34 46.9543L214.1 49.8843L214.7 52.7743L215.13 55.6543L215.41 58.4743L215.46 61.1443M215.46 61.3743L215.41 58.6543L215.13 55.8243L214.7 52.9443L214.1 50.0143L213.34 47.0143L212.42 44.0143L211.33 41.0143L210.08 38.0143L208.72 35.0743L207.2 32.1443L205.57 29.3143L203.77 26.5443L201.92 23.8743L200 21.3643L197.9 18.9143L195.78 16.6343L193.55 14.4543L191.32 12.5043L189 10.6543L186.76 9.01426L184.42 7.59426L182.08 6.34426L179.8 5.34426L177.52 4.53426L175.29 3.91426L173.06 3.53426L170.94 3.36426L168.87 3.42426L166.87 3.69426L165.03 4.23426L163.29 4.94426L162.42 5.43426M185.74 78.4943V78.5543M131.21 23.5543L132 23.0143L133.68 22.0943L135.42 21.3343L137.27 20.8443L139.27 20.5143L141.27 20.4643L143.39 20.6243L145.61 21.0043L147.84 21.6043L150.13 22.4243L152.41 23.4243L154.75 24.6743L157.08 26.0843L159.37 27.7143L161.65 29.5643L163.93 31.5643L166.11 33.7343L168.22 36.0143L170.28 38.4543L172.28 41.0143L174.13 43.7343L175.92 46.4443L177.56 49.3243L179 52.2443L180.36 55.2443L181.61 58.1743L182.69 61.2243L183.62 64.2243L184.38 67.1543L184.98 70.0943L185.41 72.9743L185.68 75.7943L185.74 78.5143M121.43 46.7143V133.014M178.73 79.7943L178.62 77.1843L178.34 74.4143L178 71.6443M178 71.6443L177.4 68.7643L176.64 65.8843L175.64 63.0043L174.56 60.0643L173.3 57.1843L171.95 54.3643L170.37 51.5843L168.74 48.8743L167 46.2043L165.1 43.7043L163.1 41.3143L161 39.0143L159 36.9143L156.82 34.9143L154.59 33.1143L152.37 31.5443L150.14 30.1243L147.83 29.0143L145.6 28.0143L143.43 27.2543L141.26 26.7143L139.14 26.3843L137.07 26.2743L135.07 26.4343L133.22 26.7643L131.43 27.3643L129.8 28.1743L128.28 29.1743L126.86 30.4243L125.61 31.8343L124.53 33.4643L123.6 35.3143L122.79 37.3143L122.19 39.4843L121.75 41.7643L121.48 44.2143V46.7143V133.014M178 71.6443L178.36 74.4243L178.64 77.1943L178.75 79.8043M178.78 142.174V79.8043V142.144M179.47 80.2343L179.42 77.5743L179.15 74.8543L178.71 72.0843L178.11 69.2043L177.35 66.3243L176.43 63.4343L175.34 60.5043L174.14 57.6243L172.79 54.7943L171.26 52.0143L169.63 49.3043L167.89 46.6343L166.1 44.0143L164.1 41.5643L162.1 39.2243L160 37.0743L157.88 35.0743L155.71 33.1643L153.48 31.5343L151.2 30.0143L149 28.7043L146.78 27.6143L144.55 26.7443L142.29 26.0143L140.17 25.5843L139.3 25.4743M147.4 21.5243L145.55 21.0943L143.38 20.7143L141.26 20.5443L139.19 20.6043L137.19 20.8743L135.29 21.4143L133.55 22.1243L131.92 23.1243L130.4 24.2643L129.8 24.8043M102.67 161.964V164.244L103 166.614L103.49 169.064L104.09 171.564L104.85 174.064L105.85 176.564L106.94 179.064L108.19 181.514L109.55 183.904L111 186.184L112.58 188.364L114.32 190.484L116.11 192.384L117.9 194.184L119.81 195.814L121.81 197.224L123.81 198.424L125.71 199.424L127.71 200.234L129.61 200.834L131.46 201.164L133.26 201.274L134.94 201.164L136.52 200.834L138.04 200.234L139.4 199.474L140.65 198.474L141.74 197.274L142.74 195.864L143.51 194.234L144.16 192.494L144.59 190.494L144.86 188.434L144.92 186.254L144.86 183.924L144.59 181.584L144.16 179.134L143.51 176.634L142.74 174.134L141.74 171.574L140.65 169.134L139.4 166.684L138.04 164.294L136.42 162.014L134.84 159.844L133.16 157.774L131.36 155.774L129.51 153.974L127.61 152.404L125.61 150.934L123.71 149.734L121.71 148.734L119.71 147.914L117.8 147.374L116.14 147.014L114.35 146.904L112.61 147.014L111.03 147.344L109.51 147.934L108.15 148.694L106.9 149.694L105.81 150.884L104.81 152.354L104.05 153.934L103.45 155.724L102.96 157.624L102.69 159.694V161.924M129.64 67.4643V86.3243L139.32 91.9243M132.09 58.8143L131.76 58.6543M132.09 58.8143L132.2 58.8743H132.36H132.96H133.12L133.23 58.8143M132.09 58.8143H133.23M133.23 58.8143L141.33 54.2543M139.86 72.6843L130.19 67.0843L129.64 67.4143L139.32 73.0143M132.74 58.4143L141.28 53.5743M132.63 58.4143L131.76 57.9243M139.32 91.8943V73.0643M128.87 115.734L127.73 116.384M129.73 117.254L128.86 117.744M128.86 120.084L128.04 119.544L127.33 118.774L126.68 117.914L126.14 116.914L125.81 115.914L125.59 114.914V114.014L125.81 113.254V113.144M128.81 117.764H129.81M127.69 116.454L128.78 117.814M127.72 115.014V116.424M128.26 114.964H127.72M171.15 97.3543L177.24 93.8743M160.89 104.414L160.62 104.204L160.4 103.984L160.29 103.714L160.24 103.434L160.89 104.414ZM160.89 104.414L170.62 110.014M160.89 104.414V85.5543M170.62 110.014L171.16 109.694V90.8243M170.62 110.014V91.0943M160.89 85.5543L160.62 85.3343L160.4 85.1143L160.29 84.8443L160.24 84.5743L160.29 84.3043L160.4 84.0843L160.62 83.8143L160.94 83.6543M160.89 85.5543L160.94 83.6543M160.89 85.5543L170.62 91.0943M171.16 90.8243L170.62 91.0943M171.16 90.8243L161.43 85.2243M177.2 74.4143L160.94 83.6543M161.43 85.2243L161.27 85.0643L161.11 84.9043L161.05 84.7343V84.5743V84.4143L161.11 84.2543L161.27 84.0843L161.49 83.9743M161.43 85.2243L161.49 83.9743M161.49 83.9743L177.25 74.9743M130 120.684L129.62 120.574L128.86 120.244L128.1 119.704L127.34 118.994L126.69 118.124L126.14 117.204L125.76 116.204L125.49 115.204V114.284M125.49 114.284L123.26 115.474M125.49 114.284V113.414L125.6 113.084L125.49 114.284ZM141.31 103.304L141.2 103.244H139.79L138.32 103.514L136.96 104.064L136.04 104.824L135.55 105.694V106.124M125.82 106.204L124.95 105.554L124.29 104.634L123.81 103.544L123.64 102.544L125.82 106.204ZM125.82 106.204L125.71 106.264L125.65 106.364L125.54 106.424L125.49 106.534V106.644L125.43 106.754V106.964L125.82 106.204ZM125.82 106.204L139.3 114.034M135.6 105.984V106.154M129.52 81.4643L127.13 82.8843M132.57 58.5243V57.0143M131.64 57.4943V68.0643M132.67 57.0143L131.74 57.4943M171.56 126.794V127.014M161.72 127.124H161.67L161.56 127.234L161.5 127.294L161.39 127.394V127.504V127.614L161.34 127.724V127.834L161.72 127.124ZM161.72 127.124L175.26 134.954M123.65 43.3743V102.584M129.63 81.5943L127.24 82.9043V59.1443L140.83 52.0743M171.15 99.0143L177.24 95.4243M159.58 123.364H159.52L159.41 123.424H158.92L158.81 123.364H158.76H159.58ZM159.58 123.364V64.1643M177.24 95.8543L171.15 99.2243M163.15 82.3743V79.9143L176.74 72.9143M174.86 135.634L161.33 127.804M161.33 127.804L160.24 126.874L159.31 125.574L158.88 124.434L158.77 123.344M161.33 127.804L158.77 123.344M158.77 123.344V64.1443M158.77 64.1443L159 63.0143L159.7 62.3643L160.47 62.3043L161.34 62.6343M158.77 64.1443L161.34 62.6343M161.34 62.6343L174.87 70.4643M174.87 70.4643L175.96 71.3843L176.83 72.6943L177.32 73.8343L177.43 74.9143M174.87 70.4643L177.43 74.9143M177.43 74.9143V134.114M177.43 134.114L177.21 135.254L176.5 135.904L175.74 135.954L174.87 135.634L177.43 134.114ZM138.87 114.864L125.38 107.014M125.38 107.014L124.24 106.094L123.37 104.784L122.94 103.644L122.77 102.564M125.38 107.014L122.77 102.564M122.77 102.564V43.3743M122.77 43.3743L123.04 42.2343L123.7 41.5843H124.51L125.38 41.9043M122.77 43.3743L125.38 41.9043M125.38 41.9043L138.86 49.7343M138.86 49.7343L140.01 50.6543L140.88 51.9643L141.31 53.1043L141.47 54.1943M138.86 49.7343L141.47 54.1943M141.47 54.1943V113.394M141.47 113.394L141.2 114.534L140.55 115.184L139.73 115.244L138.86 114.914L141.47 113.394ZM130.17 119.594L130.06 120.464L129.79 121.114L129.4 121.654L128.86 121.984L128.15 122.094L127.45 121.924L126.69 121.604L125.93 121.054L125.16 120.354L124.51 119.484L123.97 118.484L123.53 117.484L123.32 116.484L123.21 115.484L123.32 114.674L123.53 113.964L123.97 113.424L124.51 113.154L125.16 113.044L125.93 113.154L126.69 113.474L127.45 114.074L128.15 114.784L128.86 115.654L129.4 116.574L129.79 117.574L130.06 118.574L130.17 119.504M136.83 104.934H137M137.7 104.554L138.03 104.334L137.03 104.934M137.03 104.934L136.32 105.424L135.83 106.014L135.61 106.504L137.03 104.934ZM136.92 104.934L137.57 104.604M172.87 125.734H173M173 125.734L174.09 125.144L173.76 125.354M173 125.734L172.29 126.224L171.86 126.824L171.59 127.314L173 125.734ZM172.94 125.734L173.54 125.414M120.59 135.954L120.81 135.524L121.63 133.724L122.63 132.044L123.77 130.634L125.08 129.384L126.54 128.294L128.01 127.534M133.56 121.714L132.25 121.984L130.46 122.584L128.77 123.404L127.2 124.404L125.78 125.654L124.53 127.124L123.39 128.804L122.68 130.114M135.29 126.564H135.45L137.45 126.834L139.52 127.384L141.64 128.094L143.81 129.014L146 130.194L228.78 178.014L231 179.394L233.07 181.014L235.19 182.594L237.26 184.494L239.32 186.564L241.32 188.734L243.17 191.074L244.96 193.524L246.65 196.074L248.23 198.744L249.64 201.404L250.94 204.174L252.09 206.944L253.09 209.774L253.9 212.544L254.61 215.324L255.1 218.034L255.48 220.704L255.64 223.314V225.814L255.48 228.204L255.1 230.434L254.61 232.604L253.9 234.604L253.63 235.314M232.58 173.254L234.87 174.724L237.15 176.294L239.38 178.144L241.55 180.144L243.73 182.314L245.79 184.604L247.79 187.044L249.69 189.604L251.49 192.264L253.17 195.034L254.75 197.864L256.16 200.744L257.41 203.684L258.5 206.614L259.5 209.554L260.31 212.494L260.91 215.374L261.35 218.194L261.62 220.974L261.73 223.684L261.62 226.244L261.51 227.714M232.59 173.184L232.64 173.244M244.11 244.734L245.64 244.784L247.59 244.674L249.59 244.294L251.38 243.694L253.07 242.824L254.65 241.824L256.06 240.574L256.49 240.144M248 242.124L246.75 242.774L245.07 243.374L243.27 243.814L241.42 243.974L239.42 243.924L237.42 243.594L235.3 243.104L233.18 242.394L231.01 241.394L228.83 240.244M35.0001 103.014L34.1301 102.634L33.1301 102.364L32.0501 102.194H31.0001L29.9101 102.364L28.9101 102.634L28.0401 103.014L27.3401 103.554L26.8501 104.104L26.6301 104.754V105.354L26.8501 106.004L27.3401 106.544L28.0401 107.094L28.9101 107.474L29.9101 107.744L31.0001 107.904H32.1001L33.1801 107.744L34.1801 107.474L35.0501 107.094L35.7601 106.544L36.2501 106.004L36.4701 105.354V104.754L36.2501 104.104L35.7601 103.554L35.0001 103.014ZM35.0001 103.014H35.1101H35.3301H35.0001ZM35.3501 102.924L36.1101 103.464L36.6501 104.114L36.8701 104.764V105.474L36.6501 106.184L36.1101 106.784L35.3501 107.324L34.4201 107.754L33.3401 108.084L32.1401 108.244H31.0001L29.8101 108.084L28.7201 107.754L27.8001 107.324L27.0001 106.824L26.4501 106.224L26.1801 105.514V104.804L26.4501 104.154L27.0001 103.504L27.7601 102.964L28.6801 102.524L29.7701 102.254L31.0001 102.094H32.2001L33.4001 102.254L34.4801 102.524L35.4101 102.964M38.9401 100.964L37.6901 100.314L36.3301 99.8243L34.8101 99.5043L33.2301 99.2843L31.6001 99.1743L29.9701 99.2843L28.4001 99.5043L26.8701 99.8243L25.4601 100.314L24.2601 100.964L23.1801 101.674L22.3101 102.494L21.7101 103.364L21.3301 104.284L21.2201 105.204L21.3301 106.134L21.7101 107.054L22.3101 107.924L23.1801 108.744L24.2601 109.444M25.2601 108.854L24.2601 108.194L23.5001 107.494L23.0001 106.654L22.7301 105.844V104.974L22.8901 104.104L23.3301 103.284L23.9801 102.524L24.7901 101.814L25.8801 101.224L27.0001 100.734L28.3001 100.354L29.7101 100.134L31.1701 100.014H32.6401L34.1101 100.184L35.4701 100.504L36.7201 100.944L37.8601 101.484L38.8601 102.134L39.6201 102.844L40.1101 103.664L40.4301 104.474L40.4901 105.344L40.3301 106.164L39.8901 106.974L39.2401 107.734L38.3701 108.444L37.3701 109.044L36.1701 109.534L34.8601 109.914L33.4501 110.184L31.9801 110.294L30.5201 110.234L29.0001 110.134L27.6401 109.814L26.3301 109.374L25.2501 108.834M23.6701 110.354V110.084L23.7201 109.974L23.8301 109.814L23.8901 109.704L24.0001 109.594L24.1101 109.484L24.2101 109.424M23.6701 110.354L24.2101 109.424M42.6701 105.574V105.784M24.2101 109.424L25.4101 110.024L26.8201 110.514L28.3501 110.894L29.9201 111.114L31.5501 111.164L33.1801 111.114L34.7601 110.894L36.2801 110.514L37.6401 110.024L38.8901 109.424L39.9801 108.724L40.7901 107.904L41.4501 107.034L41.8301 106.114L41.9401 105.184L41.8301 104.264L41.4501 103.344L40.7901 102.474L40.0001 101.654L38.9101 100.944M51.0001 94.0143L50.1301 93.6343L49.1301 93.3643L48.0001 93.2243H46.8801L45.8801 93.3943L44.8801 93.6643L44.0001 94.0143L43.3501 94.5543L42.8601 95.1043L42.5801 95.7543V96.3543L42.8601 97.0043L43.3501 97.5443L44.0001 98.0343L44.8701 98.4743L45.8701 98.7443L46.8701 98.8543H48.0001L49.0901 98.7443L50.0901 98.4743L50.9601 98.0343L51.6101 97.5443L52.1001 97.0143L52.3701 96.3643V95.7643L52.1001 95.1143L51.6101 94.5643L51.0001 94.0143ZM51.0001 94.0143H51.0601H51.2801H51.0001ZM36.2801 97.1043V96.8143M51.2801 93.9943L52.0401 94.5343L52.5301 95.1843L52.8001 95.8343V96.5443L52.5301 97.2543L52.0401 97.8543L51.2801 98.3943L50.2801 98.8243L49.1901 99.1543L48.0501 99.3143H46.8301L45.6901 99.1543L44.6001 98.8243L43.6001 98.3943L42.8901 97.8543L42.3501 97.2543L42.0801 96.5443V95.8343L42.3501 95.1843L42.8901 94.5343L43.6001 93.9943L44.6001 93.5543L45.6901 93.2843L46.8301 93.1243H48.0801L49.2201 93.2843L50.3101 93.5543L51.3101 93.9943M54.8401 91.9943L53.5901 91.3443L52.1801 90.8543L50.7101 90.5343L49.0801 90.3143L47.5001 90.2043L45.8701 90.3143L44.2401 90.5343L42.7701 90.8543L41.3601 91.3443L40.0901 92.0143L39.0901 92.7243L38.2301 93.5443L37.6301 94.4143L37.2501 95.2843L37.0801 96.2843L37.2501 97.2143L37.6301 98.1343L38.2301 99.0043L39.0901 99.8243L40.0901 100.524M41.0901 99.9343L40.1701 99.2743L39.4101 98.5143L38.8601 97.7543L38.5401 96.8843L38.5101 96.0143L38.7301 95.1443L39.1101 94.3243L39.7601 93.5643L40.6301 92.8543L41.6301 92.2643L42.8301 91.7743L44.1901 91.3943L45.6001 91.1743L47.1001 91.0143H48.5701L49.9801 91.1843L51.4001 91.4543L52.6501 91.8843L53.7901 92.4843L54.7101 93.1343L55.4701 93.8443L56.0201 94.6643L56.3401 95.4743L56.4001 96.3443L56.1801 97.1643L55.8001 97.9743L55.1501 98.7343L54.2801 99.4443L53.2801 100.044L52.0901 100.534L50.6901 101.014L49.2701 101.284L47.8101 101.394L46.3401 101.334L44.9301 101.174L43.5101 100.854L42.2601 100.414L41.1201 99.8743M58.6301 96.6143V96.8243M40.0901 100.454L41.3401 101.054L42.7501 101.544L44.2201 101.924L45.8501 102.144L47.4801 102.194L49.0601 102.144L50.6901 101.924L52.1601 101.544L53.5701 101.014L54.8201 100.414L55.8201 99.7143L56.6901 98.8943L57.3401 98.0243L57.7301 97.1043L57.8301 96.1743L57.7301 95.1743L57.3401 94.3043L56.6901 93.4343L55.8201 92.6143L54.8201 91.9043M86.8901 114.814L86.0201 114.434L85.0201 114.154L84.0001 114.014H82.8701L81.7801 114.174L80.7801 114.454L79.9201 114.834L79.2101 115.374L78.7201 115.914L78.5001 116.574V117.164L78.7201 117.824L79.2101 118.364L79.9201 118.854M79.9401 118.874L80.8001 119.304L81.8001 119.584L82.8901 119.744H84.0001L85.0901 119.584L86.0901 119.304L86.9601 118.874L87.6701 118.384L88.1601 117.844L88.3801 117.184V116.594L88.1601 115.934L87.6701 115.394L86.9601 114.854M79.6801 119.084V119.024H79.7401L79.7901 118.964H79.8501L79.9001 118.904L79.9601 118.854L79.6801 119.084ZM79.6801 119.084L78.9201 118.534L78.3701 117.934L78.1001 117.234V116.524L78.3701 115.874L78.9201 115.224L79.6801 114.674L80.6001 114.244L81.6901 113.974L82.8901 113.804H84.0001L85.2001 113.974L86.2901 114.244L87.2101 114.674L87.9701 115.224L88.5101 115.874L88.7901 116.524V117.234L88.5101 117.934L87.9701 118.534L87.2101 119.084L86.2901 119.514L85.2001 119.844L84.0001 120.004H82.8201L81.6201 119.844L80.5301 119.514L79.6101 119.084M72.3401 117.774L72.2901 117.504M90.7501 112.664L89.5001 112.014L88.1401 111.524L86.6201 111.194L85.0501 110.984L83.4101 110.874L81.7801 110.984L80.2101 111.194L78.6801 111.524L77.3301 112.014L76.0801 112.664L74.9901 113.374L74.1701 114.184L73.5201 115.054L73.1401 115.924L73.0001 117.014L73.1101 117.944L73.4901 118.864L74.1401 119.734L74.9601 120.544L76.0501 121.254M89.6901 113.374L90.6901 114.024L91.4501 114.734L91.9901 115.544L92.2701 116.364V117.234L92.1101 118.044L91.6701 118.864L91.0201 119.624L90.1501 120.334L89.1501 120.934L87.9501 121.414L86.6501 121.794L85.2301 122.074L83.7601 122.184L82.3001 122.124L80.8301 121.964L79.4701 121.634L78.1701 121.204L77.0801 120.654L76.0801 120.004L75.3201 119.244L74.7801 118.484L74.5001 117.664V116.794L74.6601 115.924L75.1001 115.114L75.7501 114.354L76.6201 113.644L77.6201 113.044L78.8201 112.554L80.1201 112.174L81.5401 111.964L83.0001 111.854H84.4701L86.0001 112.014L87.3601 112.294L88.6601 112.724L89.7501 113.324M94.5901 117.324V117.544M76.0601 121.184L77.3101 121.784L78.6601 122.274L80.1901 122.654L81.7601 122.874H83.3901H85.0301L86.6001 122.654L88.1201 122.274L89.4801 121.784L90.7301 121.184L91.8201 120.474L92.6401 119.664L93.2901 118.794L93.6701 117.874L93.7801 116.944L93.6701 115.944L93.2901 115.074L92.6401 114.204L91.8201 113.394L90.7301 112.684M71.0001 123.834L70.1301 123.404L69.1301 123.124L68.1301 122.964H66.9401L65.8601 123.124L64.8601 123.404L63.9901 123.834L63.3301 124.324L62.8501 124.864L62.5701 125.524V126.114L62.8501 126.774L63.3301 127.314L63.9901 127.854M64.0001 127.854L64.8701 128.234L65.8701 128.514L66.9501 128.674H68.0901L69.0901 128.514L70.0901 128.234L70.9601 127.854L71.6101 127.314L72.1001 126.774L72.3701 126.114V125.524L72.1001 124.864L71.6101 124.324L70.9601 123.834M63.7301 128.014L63.7901 127.954L63.8401 127.894H63.9001H64.0001V127.834H63.9601L63.7301 128.014ZM63.7301 128.014L62.9701 127.464L62.4801 126.864L62.2101 126.164V125.454L62.4801 124.804L62.9701 124.154L63.7301 123.604L64.7301 123.174L65.8201 122.904L66.9601 122.734H68.1501L69.3501 122.904L70.4401 123.174L71.4401 123.604L72.1401 124.154L72.6901 124.804L72.9601 125.454V126.164L72.6901 126.864L72.1401 127.464L71.4401 128.014L70.4401 128.444L69.3501 128.774L68.1501 128.934H66.8901L65.7501 128.774L64.6601 128.444L63.6601 128.014M56.3901 126.704V126.434M74.8601 121.594L73.6101 120.944L72.2001 120.454L70.6701 120.124L69.1201 120.014L67.4901 119.904L65.8601 120.014L64.2801 120.224L62.7601 120.554L61.4001 121.044L60.1501 121.694L59.1501 122.404L58.2801 123.214L57.6301 124.084L57.2501 125.014L57.1401 125.934L57.2501 126.854L57.6301 127.784L58.2801 128.654L59.1501 129.464L60.1501 130.174M73.8501 122.294L74.7701 122.944L75.5301 123.654L76.0801 124.464L76.4001 125.284L76.4601 126.154L76.2401 126.964L75.8601 127.784L75.2101 128.544L74.3401 129.254L73.3401 129.844L72.1501 130.334L70.7901 130.714L69.3701 130.994L67.9101 131.104L66.4401 131.044L64.9701 130.884L63.6101 130.554L62.3601 130.124L61.2201 129.574L60.3001 128.924L59.5401 128.214L58.9901 127.404L58.6701 126.584L58.6101 125.714L58.7701 124.844L59.2101 124.034L59.8601 123.274L60.7301 122.564L61.7301 121.964L62.9301 121.474L64.2901 121.094L65.7001 120.884L67.1701 120.774H68.6401L70.0001 121.014L71.4101 121.344L72.6601 121.774L73.8101 122.324M59.6001 131.124V131.014L59.6601 130.844L59.7101 130.734L59.7701 130.574V130.464L59.8801 130.354L59.9901 130.254L60.1001 130.194M59.6001 131.124L60.1001 130.194M60.1001 130.194L61.3501 130.794L62.7101 131.284L64.2301 131.664L65.8101 131.884H67.4401H69.0701L70.6401 131.664L72.1701 131.284L73.5801 130.794L74.8301 130.194L75.8301 129.484L76.7001 128.674L77.3001 127.804L77.6801 126.874L77.8401 125.954L77.6801 125.034L77.3001 124.104L76.7001 123.234L75.8301 122.424L74.8301 121.714M78.6301 126.334V126.554M151.81 197.804L152.47 197.474M117.85 137.404L117.26 137.734M100.42 156.434L100.37 156.654M106.24 144.474L105.96 144.744L104.66 146.104L103.57 147.684L102.57 149.364L101.76 151.154L101.05 153.154L100.56 155.214L100.45 155.924M215.6 156.834V61.2643M162.46 5.43426L132.78 22.5543M138.65 199.984L139.73 199.334M109.89 147.644L108.8 148.294M160.23 84.5843V103.444M135.63 106.344L135.85 106.944L136.85 107.754L135.63 106.344ZM135.63 106.344L135.52 106.014M171.7 127.114L171.92 127.704L172.92 128.524L171.7 127.114ZM171.7 127.114L171.59 126.784M141.31 53.9743V113.124M161.45 62.9143L160.74 62.6443L160.2 62.7543L161.45 62.9143ZM177.21 74.7143V133.914M149.72 125.384L148.63 124.734L146.46 123.734L144.34 122.864L142.27 122.214L140.21 121.724L138.21 121.504L136.21 121.394L134.36 121.554L133.71 121.664M153.68 196.894L228.86 240.324M232.56 173.244L149.71 125.404M256.56 240.064L256.77 239.784L257.92 238.324L258.92 236.694L259.78 234.954L260.49 232.954L261.04 230.884L261.42 228.664L261.52 227.894M20.3501 166.724L20.5201 167.724L20.8401 168.654L21.3901 169.514L22.0901 170.384L23.0201 171.154L23.8301 171.634M20.3501 166.724L23.8301 171.634M23.8301 171.634L24.4301 171.964L25.7401 172.504L27.1001 172.944L28.5601 173.274L30.1401 173.434H31.6601H33.2401L34.7601 173.214L36.2301 172.894L37.5901 172.404L38.8901 171.854L39.9801 171.204L40.9801 170.384L41.7401 169.514L42.2801 168.594L42.6601 167.594L42.7201 166.674M42.7001 166.724V146.014V105.784M39.2701 100.894L38.6701 100.564L37.3701 100.014L36.0001 99.5943L34.4801 99.2643L33.0001 99.1043L31.3901 99.0143L29.8701 99.0743L28.3501 99.2843L26.8801 99.6143L25.4601 100.044L24.2101 100.644L23.0701 101.294L22.1501 102.114L21.3901 102.934L20.7901 103.934L20.4601 104.864L20.3501 105.864L20.4101 106.074M42.6901 163.894L43.0101 164.004L44.4801 164.334L46.0001 164.494H47.5801H49.1601L50.6801 164.274L52.1501 163.954L53.5101 163.464L54.7601 162.914L55.9001 162.214L56.3301 161.884M36.2701 96.8843V99.7643M58.6101 122.514V96.8143M78.6801 184.614L78.9601 184.724L80.4801 185.044L82.0001 185.214L83.5801 185.264L85.1001 185.214L86.6201 184.994L88.0901 184.664L89.5001 184.174L90.7501 183.634L91.8401 182.924L92.8401 182.164L93.6001 181.294L94.2001 180.374L94.5201 179.374L94.5801 178.444V157.754M72.2201 117.584V120.464M91.1301 112.694L90.5401 112.364L89.2301 111.824L87.8701 111.384L86.3501 111.064L84.8301 110.894H83.2501H81.7301L80.2101 111.114L78.7401 111.444L77.3301 111.874L76.0801 112.474L74.9901 113.124L73.9901 113.884L73.2301 114.754L72.6301 115.754L72.3001 116.674L72.2001 117.674L72.2501 117.894M94.5901 157.794V117.584M59.8001 192.404L59.0401 191.914L58.1101 191.154L57.3501 190.284L56.8101 189.414L56.4801 188.494L56.3701 187.494L59.8001 192.404ZM59.8001 192.404L60.3901 192.734L61.7001 193.274L63.1101 193.714L64.5801 194.034L66.1001 194.204L67.6801 194.254L69.2601 194.204L70.7801 193.984L72.2501 193.654L73.6001 193.164L74.8601 192.624L76.0001 191.974L76.9201 191.154L77.7401 190.284L78.2801 189.364L78.6101 188.364L78.7101 187.434M78.6801 187.434V166.724M75.2601 121.664L74.6101 121.334L73.3601 120.794L71.9401 120.354L70.4801 120.014L69.0001 119.864H67.4301H65.8501L64.3301 120.084L62.8601 120.414L61.5001 120.844L60.2501 121.444L59.1101 122.094L58.1101 122.914L57.3501 123.724L56.8101 124.724L56.4801 125.644L56.3701 126.644V126.864M78.7101 166.764V126.554M78.7101 126.334L78.6601 125.574L78.2801 124.654L77.7901 123.724L77.0001 122.914L76.0701 122.154L75.3101 121.664M123.34 147.354L125.34 148.604L126.05 149.094L123.34 147.354ZM136.57 107.874L136.67 107.814H136.89L136.57 107.874ZM141.35 96.8143L140.81 97.1443L136.35 99.8643L125.86 106.274L141.35 96.8143ZM141.36 108.764H139.78L138.42 108.544L137.34 108.224L136.58 107.844L141.36 108.764ZM172.55 128.604H172.61H172.83H172.55ZM177.28 117.604L176.74 117.934L172.34 120.644L161.75 127.014L177.28 117.604ZM177.24 129.494H175.67L174.31 129.274L173.31 128.954L172.55 128.564L177.24 129.494ZM123.68 102.564L130.75 99.0843L137.82 95.6543L141.31 94.0143L123.68 102.564ZM141.43 113.374L141.32 113.314V113.154L141.43 113.374ZM141.49 54.1943L141.38 54.1343V54.0243L141.49 54.1943ZM159.65 123.444L166.71 119.964L173.78 116.544L177.31 114.854L159.65 123.444ZM177.41 134.154L177.35 134.094L177.29 134.034V133.984L177.41 134.154ZM161.53 62.9843H161.47V62.9343V62.8743L161.42 62.8243V62.7143L161.53 62.9843ZM177.45 74.9043H177.39L177.33 74.8443L177.45 74.9043ZM135.58 106.354L135.74 105.974L136.23 105.384L136.94 104.894L135.58 106.354ZM171.49 127.174L171.71 126.794L172.2 126.194L172.9 125.704L171.49 127.174ZM149.6 125.374H149.49V125.434H149.43L149.6 125.374ZM228.78 240.324H228.73V240.214L228.78 240.324ZM232.21 173.404H232.26L232.32 173.344H232.48L232.21 173.404ZM39.2701 100.904H39.2201H39.1101H39.0001L38.8901 100.954L39.2701 100.904ZM38.1901 100.404L37.5901 99.8643L36.9301 99.0143L36.5001 98.0143L36.2801 97.0843L38.1901 100.404ZM39.6001 101.114V101.004L39.6601 100.844L39.7701 100.734L39.8201 100.624L40.0001 100.514L40.1101 100.454L39.6001 101.114ZM74.1201 121.174L73.5201 120.624L72.8701 119.754L72.4301 118.754L72.2701 117.834L74.1201 121.174ZM75.5901 121.854V121.744L75.6901 121.584L75.7501 121.474L75.8601 121.364L75.9701 121.264L76.0801 121.204L75.5901 121.854ZM91.1501 112.704V112.644H91.0001L90.8901 112.704H90.7801H91.1501ZM59.6001 131.144L58.5201 130.434L57.6501 129.614L56.9401 128.744L56.5101 127.744L56.3401 126.824L59.6001 131.144ZM75.2901 121.644L75.1801 121.584H75.0001V121.644H74.8901H75.2901ZM163.77 190.644L163.83 190.584V190.644H163.77ZM168.66 170.744L168.83 172.044L168.99 173.354L169.04 174.654V177.154L168.99 178.354L168.83 179.554L168.77 180.144L168.66 170.744ZM168.66 180.694L168.5 181.124L168.34 181.564L168.17 182.054L168.07 182.544L167.9 183.034L167.79 183.514L167.74 184.064L167.63 184.604L168.66 180.694ZM168.63 180.694L168.8 180.254L168.85 180.094H168.8L168.63 180.694ZM167.27 185.694L167.33 185.634L167.38 185.534L167.49 185.204L167.6 184.604L167.27 185.694ZM154.59 195.904L154.86 195.254L155.19 194.704L155.52 194.114L155.9 193.624L156.22 193.074L156.66 192.644L157.09 192.154L157.53 191.774L154.59 195.904ZM125.35 135.994L124.75 136.164L124.15 136.324L123.55 136.434L122.9 136.484L122.25 136.544H121.6L120.94 136.484L120.29 136.434L125.35 135.994ZM163.29 154.594L163.94 155.944L164.59 157.364L165.19 158.724L165.79 160.134L166.28 161.494L166.77 162.904L167.2 164.324L167.58 165.734L163.29 154.594ZM153 140.304L154 141.304L155 142.384L155.92 143.474L156.92 144.614L157.85 145.814L158.77 147.064L159.64 148.314L160.46 149.564L153 140.304ZM167.76 165.634L167.87 166.234L167.92 166.884L168.03 167.484L168.2 168.134L168.3 168.784L168.47 169.434L168.63 170.094L168.79 170.744L167.76 165.634ZM167.79 165.634L167.68 164.984L167.57 164.714L167.52 164.654H167.46L167.79 165.634ZM168.99 171.994H169.04V171.884L168.99 171.504L168.82 170.794L168.99 171.994ZM168.99 180.124L169.04 179.634L169.1 179.144V178.654V178.224L169.15 177.734V176.214L168.99 180.124ZM168.61 176.534L168.56 176.914L168.39 177.354L168.23 177.674L167.96 178.114L167.47 178.714L166.87 179.414L165.68 180.554L164.48 181.554L161.98 183.344L159.41 185.014L168.61 176.534ZM157.63 169.444L157.19 168.524L156.76 167.594L156.32 166.594L156 165.674L155.62 164.754L155.29 163.754L154.96 162.824L154.69 161.904L157.63 169.444ZM149.75 153.314L149.09 152.604L148.44 151.904L147.79 151.134L147.14 150.374L146.54 149.564L145.89 148.744L145.29 147.934L144.74 147.064L149.75 153.314ZM145 186.354V186.514V186.574V186.354ZM117.38 137.734L117.54 137.674V137.624L117.43 137.734L117.22 137.844L116.84 138.114L115.97 138.654L115.04 139.254L112.87 140.554L110.54 142.014L117.38 137.734ZM106.41 144.354L108.15 143.354L109.89 142.264L111.63 141.264L112.63 140.664L113.55 140.114L114.55 139.524L115.26 139.084L116.02 138.594L116.4 138.384L116.78 138.164L117.1 137.944H117.16L106.41 144.354ZM116.62 141.474L118.35 140.474L120.15 139.544L122 138.674L123 138.184L124 137.804L125 137.424L125.87 137.154L126.69 136.884L127.12 136.824L127.56 136.774L127.94 136.714L128.32 136.774L128.53 136.884L128.7 137.044V137.424L128.53 137.804L128.26 138.294L127.5 139.114L126.58 139.924L124.51 141.444L122.17 142.914L116.62 141.474ZM129.17 146.994L130.91 146.064L132.7 145.194L134.6 144.494L135.6 144.164L136.6 143.894L137.6 143.734L138.47 143.624H139.77L140.15 143.734L140.59 143.894L140.91 144.114L141.19 144.384L141.29 144.764L141.35 145.034L141.29 145.414L141.13 145.964L140.86 146.554L140.04 147.644L139.17 148.644L137.05 150.384L134.72 151.964L129.17 146.994ZM140.81 159.514L142.49 158.594L144.28 157.834L146.08 157.234L147.08 157.014L148.08 156.854L149.08 156.744H149.84L150.61 156.854L151.04 156.964L151.37 157.124L151.69 157.404L151.96 157.784L152.13 158.164L152.18 158.594V159.014L152.07 159.454L151.86 160.104L151.42 160.864L150.55 162.064L149.55 163.144L147.34 165.014L145 166.614L140.81 159.514ZM148.48 175.614L150.17 174.744L151.91 173.984L153.59 173.444L154.46 173.224L155.39 173.064L156.2 173.004L156.85 173.064L157.45 173.224L157.78 173.334L158.05 173.554L158.27 173.824L158.38 174.204V174.584L158.27 175.024L158.16 175.454L157.94 175.834L157.56 176.544L157.02 177.244L155.93 178.444L154.79 179.534L152.4 181.384L150 182.924L148.48 175.614ZM123.62 147.424V147.204H123.68V147.014V146.964L123.62 147.424ZM123.6 201.084V201.244L123.66 201.304L123.6 201.084ZM150.1 182.954L150.16 183.504L150.21 184.044L150.27 184.584V185.074V186.074L150.33 186.614V187.104L150.1 182.954ZM150.05 182.914L149.67 182.804L149.24 182.534L148.59 181.824L147.82 179.924V177.754L148.09 176.614L148.31 176.064L148.58 175.574L150.05 182.914ZM145.1 166.574L145.65 167.664L146.14 168.804L146.62 169.894L147.06 171.034L147.49 172.174L147.87 173.314L148.26 174.404L148.58 175.544L145.1 166.574ZM145.1 166.544L144.61 166.434L144.07 166.224L143.07 165.574L141.66 163.774L140.84 161.604L140.73 160.464L140.84 159.914L141.01 159.424L145.1 166.544ZM134.92 151.874L135.73 152.744L136.55 153.614L137.31 154.534L138.07 155.454L138.83 156.454L139.59 157.454L140.3 158.454L141.01 159.454L134.92 151.874ZM134.92 151.904H134.37L133.77 151.844L132.69 151.524L130.84 150.374L129.59 148.744L129.26 147.824V147.334L129.37 146.954L134.92 151.904ZM122.37 142.874L123.24 143.254L124.17 143.694L125.04 144.124L125.91 144.614L126.78 145.154L127.65 145.704L128.52 146.304L129.39 146.954L122.37 142.874ZM122.39 142.874L121.91 143.034L121.31 143.204L120.31 143.314L118.47 143.144L117.16 142.494L116.84 142.004L116.78 141.684L116.84 141.404L122.39 142.874ZM110.84 141.954L111.55 141.734L112.25 141.574L112.96 141.404L113.72 141.354H114.48H116.06L116.88 141.454L110.84 141.954ZM179.8 80.2743H179.58L179.53 80.2143H179.47L179.8 80.2743ZM185.8 78.5643L185.09 78.8343L184.33 79.0543L183.62 79.3243L182.92 79.5443L182.16 79.7543L181.39 79.9243L180.63 80.1343L179.82 80.3043L185.8 78.5643ZM139.69 199.314L140.35 198.874L140.67 198.654L139.69 199.314ZM111 147.104L110.62 147.264L109.91 147.644L111 147.104ZM139.86 72.7343L140.08 72.8443L140.35 72.9543H140.68H141.33L139.86 72.7343ZM141.33 73.4143H140.51L140.08 73.3043L139.64 73.1943L139.32 73.0343L141.33 73.4143ZM141.32 92.3043H140.5L140.07 92.1943L139.63 92.0843L139.31 91.9243L141.32 92.3043ZM130.06 120.504L129.57 120.404L128.81 120.074L130.06 120.504ZM138.86 114.794V114.684L138.92 114.574V114.464L138.98 114.364V114.254L139.04 114.144L139.14 114.084H139.2L138.86 114.794ZM171.59 127.194L171.97 126.484L172.97 125.724L173.84 125.344L171.59 127.194ZM159.6 123.344L159.76 124.344L160.25 125.434L160.95 126.364L161.77 127.014L159.6 123.344ZM123.64 102.584H123.53L123.42 102.634H123L122.89 102.584H122.78H123.64ZM174.83 135.634V135.414L174.89 135.304L174.94 135.194V135.084L175.05 134.974L175.11 134.924H175.22L174.83 135.634ZM123.57 43.4243L123.46 43.4843H123.25H123.14H123.03H123L122.89 43.4243H122.78H123.57ZM159.57 64.1443L159.51 64.2043H159.24L159.13 64.2543L159.02 64.2043H158.91L158.8 64.1443H158.75H159.57ZM138.05 104.334L138.86 103.954L139.79 103.794L140.79 103.734L141.33 103.794L138.05 104.334ZM138.07 104.334V104.274H138.24V104.334H138.07ZM174 125.144L174.76 124.754L175.68 124.594H176.68H177.22L174 125.144ZM174.02 125.144V125.084H174.12L174.18 125.144H174.23H174.02ZM228.84 177.814V177.874H228.79V178.014L228.84 177.814ZM232.36 173.274L231.92 173.764L231.49 174.304L231.05 174.904L230.62 175.444L230.18 175.994L229.75 176.594L229.37 177.184L228.93 177.784L232.36 173.274ZM28.0001 107.094H27.9101V107.154L27.8501 107.204V107.264L28.0001 107.094ZM44.0001 98.0143V98.0743H43.9401H43.8901L43.8301 98.1343H43.7801H43.7301L43.6701 98.1943L44.0001 98.0143ZM86.9201 114.854H87.0001L87.0601 114.794H87.2201L86.9201 114.854ZM70.9901 123.854L71.0501 123.794H71.2701L70.9901 123.854ZM148.44 136.284L148.06 136.014L146.06 134.654L144.06 133.454L142.06 132.454L140.81 131.914L148.44 136.284ZM128.98 203.724L130.23 204.104L132.41 204.544L134.53 204.764L136.59 204.704L138.59 204.484L140.49 203.994H140.55L128.98 203.724ZM126.09 202.644L128.09 203.404L128.85 203.674L126.09 202.644ZM100.26 157.084V157.464L100.2 157.794L100.26 157.084ZM129.84 24.7843L129.62 25.0043L127.77 26.9043L126.14 29.0143L124.62 31.2443L123.81 32.6543L129.84 24.7843ZM141.34 108.574L141.12 108.624H140.12L139.03 108.514L137.95 108.244L136.95 107.754L141.34 108.574ZM141.41 113.034L141.25 113.794L140.92 114.174L141.41 113.034ZM177.35 129.344H177.14H176.14L175 129.234L173.91 128.964L172.91 128.474L177.35 129.344ZM177.36 133.804L177.25 134.504L176.93 134.884L177.36 133.804ZM124.29 42.0143L124.78 41.9043L125.49 42.1743L124.29 42.0143ZM122.71 130.254L122.06 131.614L121.06 134.114L120.41 136.114L122.71 130.254ZM233.64 242.464L234.45 242.794L237.12 243.604L239.73 244.204L242.39 244.584L244.07 244.754L233.64 242.464ZM42.7001 105.574L42.5901 104.804L42.2601 103.884L41.7201 102.964L41.0001 102.144L40.0801 101.384L39.2601 100.894L42.7001 105.574ZM58.6101 96.6043L58.5001 95.8343L58.1701 94.9143L57.6501 94.0143L56.8901 93.1943L56.0001 92.4143L55.2401 91.9243L58.6101 96.6043ZM94.5901 117.364L94.4801 116.604L94.1501 115.684L93.6101 114.754L92.9001 113.944L91.9801 113.184L91.1601 112.694L94.5901 117.364Z" stroke="#212B39" stroke-width="0.71" stroke-linecap="round" stroke-linejoin="round"/>
<path d="M64.4526 185.079C64.3942 185.08 64.3364 185.068 64.2826 185.046C64.2289 185.023 64.1803 184.99 64.1399 184.947C64.0949 184.907 64.0591 184.858 64.035 184.802C64.0108 184.747 63.9989 184.687 64.0001 184.627C63.9997 184.569 64.012 184.511 64.0361 184.459C64.0603 184.406 64.0957 184.36 64.1399 184.322C64.2273 184.248 64.338 184.207 64.4526 184.207H70.6639C70.7803 184.206 70.8925 184.25 70.9765 184.33C71.0588 184.42 71.103 184.538 71.0999 184.66C71.0996 184.713 71.0886 184.767 71.0674 184.816C71.0462 184.865 71.0153 184.91 70.9765 184.947C70.9365 184.99 70.888 185.024 70.8341 185.046C70.7803 185.069 70.7223 185.08 70.6639 185.079H64.4526ZM67.5624 188.37C67.4983 188.371 67.4347 188.359 67.3753 188.335C67.3159 188.311 67.2619 188.276 67.2166 188.23C67.1714 188.185 67.1356 188.131 67.1116 188.072C67.0876 188.012 67.0758 187.949 67.077 187.885V181.492C67.0749 181.427 67.0871 181.363 67.1127 181.303C67.1382 181.243 67.1766 181.19 67.225 181.147C67.3201 181.062 67.4431 181.015 67.5706 181.015C67.6981 181.015 67.8211 181.062 67.9161 181.147C67.9999 181.236 68.0469 181.353 68.0477 181.476V187.868C68.0506 187.935 68.0396 188.001 68.0156 188.064C67.9915 188.126 67.9548 188.183 67.9079 188.23C67.8602 188.27 67.8052 188.3 67.7458 188.318C67.6865 188.337 67.6242 188.343 67.5624 188.337V188.37Z" fill="#212B39"/>
<path d="M83.4526 175.079C83.3942 175.08 83.3364 175.068 83.2826 175.046C83.2289 175.023 83.1803 174.99 83.1399 174.947C83.0949 174.907 83.0591 174.858 83.035 174.802C83.0108 174.747 82.9989 174.687 83.0001 174.627C82.9997 174.569 83.012 174.511 83.0361 174.459C83.0603 174.406 83.0957 174.36 83.1399 174.322C83.2273 174.248 83.338 174.207 83.4526 174.207H89.6639C89.7803 174.206 89.8925 174.25 89.9765 174.33C90.0588 174.42 90.103 174.538 90.0999 174.66C90.0996 174.713 90.0886 174.767 90.0674 174.816C90.0462 174.865 90.0153 174.91 89.9765 174.947C89.9365 174.99 89.888 175.024 89.8341 175.046C89.7803 175.069 89.7223 175.08 89.6639 175.079H83.4526ZM86.5624 178.37C86.4983 178.371 86.4347 178.359 86.3753 178.335C86.3159 178.311 86.2619 178.276 86.2166 178.23C86.1714 178.185 86.1356 178.131 86.1116 178.072C86.0876 178.012 86.0758 177.949 86.077 177.885V171.492C86.0749 171.427 86.0871 171.363 86.1127 171.303C86.1382 171.243 86.1766 171.19 86.225 171.147C86.3201 171.062 86.4431 171.015 86.5706 171.015C86.6981 171.015 86.8211 171.062 86.9161 171.147C86.9999 171.236 87.0469 171.353 87.0477 171.476V177.868C87.0506 177.935 87.0396 178.001 87.0156 178.064C86.9915 178.126 86.9548 178.183 86.9079 178.23C86.8602 178.27 86.8052 178.3 86.7458 178.318C86.6865 178.337 86.6242 178.343 86.5624 178.337V178.37Z" fill="#212B39"/>
<path d="M46.4526 155.079C46.3942 155.08 46.3364 155.068 46.2826 155.046C46.2289 155.023 46.1803 154.99 46.1399 154.947C46.0949 154.907 46.0591 154.858 46.035 154.802C46.0108 154.747 45.9989 154.687 46.0001 154.627C45.9997 154.569 46.012 154.511 46.0361 154.459C46.0603 154.406 46.0957 154.36 46.1399 154.322C46.2273 154.248 46.338 154.207 46.4526 154.207H52.6639C52.7803 154.206 52.8925 154.25 52.9765 154.33C53.0588 154.42 53.103 154.538 53.0999 154.66C53.0996 154.713 53.0886 154.767 53.0674 154.816C53.0462 154.865 53.0153 154.91 52.9765 154.947C52.9365 154.99 52.888 155.024 52.8341 155.046C52.7803 155.069 52.7223 155.08 52.6639 155.079H46.4526ZM49.5624 158.37C49.4983 158.371 49.4347 158.359 49.3753 158.335C49.3159 158.311 49.2619 158.276 49.2166 158.23C49.1714 158.185 49.1356 158.131 49.1116 158.072C49.0876 158.012 49.0758 157.949 49.077 157.885V151.492C49.0749 151.427 49.0871 151.363 49.1127 151.303C49.1382 151.243 49.1766 151.19 49.225 151.147C49.3201 151.062 49.4431 151.015 49.5706 151.015C49.6981 151.015 49.8211 151.062 49.9161 151.147C49.9999 151.236 50.0469 151.353 50.0477 151.476V157.868C50.0506 157.935 50.0396 158.001 50.0156 158.064C49.9915 158.126 49.9548 158.183 49.9079 158.23C49.8602 158.27 49.8052 158.3 49.7458 158.318C49.6865 158.337 49.6242 158.343 49.5624 158.337V158.37Z" fill="#212B39"/>
<path d="M29.4526 164.079C29.3942 164.08 29.3364 164.068 29.2826 164.046C29.2289 164.023 29.1803 163.99 29.1399 163.947C29.0949 163.907 29.0591 163.858 29.035 163.802C29.0108 163.747 28.9989 163.687 29.0001 163.627C28.9997 163.569 29.012 163.511 29.0361 163.459C29.0603 163.406 29.0957 163.36 29.1399 163.322C29.2273 163.248 29.338 163.207 29.4526 163.207H35.6639C35.7803 163.206 35.8925 163.25 35.9765 163.33C36.0588 163.42 36.103 163.538 36.0999 163.66C36.0996 163.713 36.0886 163.767 36.0674 163.816C36.0462 163.865 36.0153 163.91 35.9765 163.947C35.9365 163.99 35.888 164.024 35.8341 164.046C35.7803 164.069 35.7223 164.08 35.6639 164.079H29.4526ZM32.5624 167.37C32.4983 167.371 32.4347 167.359 32.3753 167.335C32.3159 167.311 32.2619 167.276 32.2166 167.23C32.1714 167.185 32.1356 167.131 32.1116 167.072C32.0876 167.012 32.0758 166.949 32.077 166.885V160.492C32.0749 160.427 32.0871 160.363 32.1127 160.303C32.1382 160.243 32.1766 160.19 32.225 160.147C32.3201 160.062 32.4431 160.015 32.5706 160.015C32.6981 160.015 32.8211 160.062 32.9161 160.147C32.9999 160.236 33.0469 160.353 33.0477 160.476V166.868C33.0506 166.935 33.0396 167.001 33.0156 167.064C32.9915 167.126 32.9548 167.183 32.9079 167.23C32.8602 167.27 32.8052 167.3 32.7458 167.318C32.6865 167.337 32.6242 167.343 32.5624 167.337V167.37Z" fill="#212B39"/>
<path d="M65.2502 141.154C65.1777 141.155 65.1057 141.142 65.0386 141.114C64.9716 141.087 64.9108 141.046 64.8602 140.994C64.8073 140.944 64.7656 140.883 64.7381 140.816C64.7105 140.749 64.6976 140.677 64.7002 140.604C64.6969 140.531 64.7095 140.459 64.7371 140.391C64.7648 140.324 64.8068 140.263 64.8602 140.214C64.9117 140.164 64.9728 140.125 65.0398 140.099C65.1069 140.073 65.1785 140.061 65.2502 140.064H69.2502C69.3236 140.062 69.3965 140.077 69.4638 140.106C69.5311 140.136 69.5913 140.179 69.6402 140.234C69.6929 140.286 69.7343 140.348 69.7618 140.417C69.7894 140.486 69.8024 140.56 69.8002 140.634C69.8027 140.704 69.7896 140.773 69.7619 140.837C69.7342 140.901 69.6927 140.958 69.6402 141.004C69.5888 141.054 69.5277 141.093 69.4606 141.119C69.3936 141.145 69.322 141.157 69.2502 141.154H65.2502Z" fill="#212B39"/>
<path d="M83.36 132.444C83.2866 132.449 83.2132 132.438 83.1445 132.411C83.0758 132.385 83.0134 132.345 82.9614 132.293C82.9094 132.241 82.8691 132.179 82.843 132.11C82.8169 132.041 82.8056 131.968 82.81 131.894C82.8068 131.824 82.8186 131.754 82.8444 131.688C82.8703 131.623 82.9097 131.564 82.96 131.514C83.0688 131.414 83.2123 131.361 83.36 131.364H87.36C87.4333 131.364 87.506 131.378 87.5732 131.408C87.6404 131.437 87.7007 131.48 87.75 131.534C87.8527 131.642 87.91 131.786 87.91 131.934C87.9099 132.004 87.8956 132.072 87.8681 132.136C87.8406 132.2 87.8004 132.257 87.75 132.304C87.6417 132.398 87.5028 132.447 87.36 132.444H83.36Z" fill="#212B39"/>
<path d="M30.28 120.464C30.1341 120.464 29.9942 120.406 29.8911 120.303C29.788 120.2 29.73 120.06 29.73 119.914C29.7253 119.843 29.7373 119.771 29.7651 119.705C29.7928 119.639 29.8356 119.581 29.89 119.534C29.9415 119.484 30.0026 119.445 30.0696 119.419C30.1366 119.393 30.2082 119.382 30.28 119.384H34.28C34.3527 119.381 34.4253 119.394 34.4927 119.421C34.5601 119.449 34.6206 119.491 34.67 119.544C34.723 119.598 34.7645 119.662 34.792 119.733C34.8195 119.803 34.8324 119.879 34.83 119.954C34.8324 120.023 34.8192 120.09 34.7915 120.153C34.7638 120.215 34.7222 120.27 34.67 120.314C34.6186 120.364 34.5575 120.404 34.4904 120.429C34.4234 120.455 34.3518 120.467 34.28 120.464H30.28Z" fill="#212B39"/>
<path d="M47.9401 111.334C47.8675 111.337 47.7951 111.324 47.7278 111.296C47.6605 111.268 47.6 111.227 47.5501 111.174C47.4693 111.1 47.4134 111.003 47.3901 110.896C47.3668 110.789 47.3772 110.677 47.42 110.576C47.4627 110.475 47.5357 110.39 47.6289 110.332C47.722 110.275 47.8307 110.247 47.9401 110.254H51.9401C52.0142 110.252 52.0879 110.265 52.1568 110.292C52.2256 110.32 52.288 110.361 52.3401 110.414C52.4383 110.524 52.4918 110.667 52.4901 110.814C52.4919 110.883 52.4794 110.951 52.4536 111.015C52.4278 111.078 52.3892 111.136 52.3401 111.184C52.2313 111.284 52.0878 111.338 51.9401 111.334H47.9401Z" fill="#212B39"/>
</svg>
