<svg width="1822" height="545" viewBox="0 0 1822 545" fill="none" xmlns="http://www.w3.org/2000/svg">
<path d="M926.673 486.591V497.562C926.673 501.367 925.923 505.136 924.465 508.651C923.007 512.167 920.87 515.36 918.177 518.049C915.483 520.737 912.286 522.868 908.768 524.32C905.25 525.772 901.48 526.516 897.675 526.509H698.032C689.772 526.516 681.591 524.891 673.96 521.729C666.329 518.566 659.398 513.927 653.564 508.079C647.731 502.231 643.109 495.289 639.965 487.65C636.822 480.011 635.217 471.827 635.244 463.567V38.5276C635.244 34.7175 635.996 30.9449 637.458 27.4261C638.919 23.9073 641.06 20.7116 643.759 18.0223C646.458 15.333 649.661 13.2029 653.185 11.7542C656.709 10.3056 660.484 9.56682 664.295 9.58038H677.223C683.63 9.58038 689.774 12.1255 694.304 16.6558C698.835 21.1861 701.38 27.3305 701.38 33.7374V423.803C701.38 434.049 705.45 443.874 712.695 451.119C719.939 458.364 729.765 462.434 740.01 462.434H902.619C909.008 462.461 915.126 465.018 919.634 469.545C924.142 474.073 926.673 480.202 926.673 486.591ZM1305.97 33.7374V329.957C1305.97 403.664 1248.8 466.503 1175.15 469.284C1156.85 469.969 1138.61 466.961 1121.5 460.438C1104.4 453.915 1088.78 444.011 1075.59 431.319C1062.4 418.627 1051.9 403.406 1044.72 386.566C1037.54 369.725 1033.83 351.611 1033.81 333.305V33.7374C1033.81 27.3305 1031.26 21.1861 1026.73 16.6558C1022.2 12.1255 1016.06 9.58038 1009.65 9.58038H996.775C989.093 9.58037 981.725 12.6285 976.288 18.0557C970.851 23.4829 967.79 30.8456 967.776 38.5276V328.978C967.776 438.998 1053.85 532.072 1163.81 535.317C1190.85 536.102 1217.76 531.459 1242.97 521.662C1268.18 511.866 1291.17 497.116 1310.58 478.283C1329.99 459.449 1345.42 436.916 1355.97 412.015C1366.52 387.113 1371.98 360.349 1372.01 333.305V38.5276C1372.01 30.8503 1368.96 23.4875 1363.53 18.0588C1358.1 12.6302 1350.74 9.58038 1343.06 9.58038H1330.13C1323.72 9.58038 1317.58 12.1255 1313.05 16.6558C1308.52 21.1861 1305.97 27.3305 1305.97 33.7374ZM1577.98 71.7498H1796.99C1800.17 71.7498 1803.31 71.125 1806.24 69.911C1809.17 68.697 1811.83 66.9176 1814.08 64.6744C1816.32 62.4312 1818.1 59.7682 1819.31 56.8373C1820.53 53.9065 1821.15 50.7652 1821.15 47.5929V38.5276C1821.14 30.8722 1818.1 23.5328 1812.69 18.1101C1807.29 12.6873 1799.96 9.62116 1792.31 9.58038H1550.74C1530.25 9.58038 1510.59 17.7204 1496.11 32.2096C1481.62 46.6989 1473.48 66.3506 1473.48 86.8415C1473.48 86.8415 1473.48 175.846 1473.48 176.876C1473.34 197.862 1479.38 218.423 1490.83 236.007C1494.85 242.184 1496.99 249.395 1496.99 256.764C1496.99 264.134 1494.85 271.345 1490.83 277.522C1479.36 295.11 1473.26 315.655 1473.27 336.652C1473.27 337.683 1473.27 449.248 1473.27 449.248C1473.27 469.739 1481.41 489.39 1495.9 503.88C1510.39 518.369 1530.04 526.509 1550.53 526.509H1792.31C1796.11 526.516 1799.88 525.772 1803.4 524.32C1806.92 522.868 1810.12 520.737 1812.81 518.049C1815.5 515.36 1817.64 512.167 1819.1 508.651C1820.56 505.136 1821.31 501.367 1821.31 497.562V493.338C1821.29 485.656 1818.23 478.293 1812.79 472.866C1807.36 467.439 1799.99 464.391 1792.31 464.391H1577.98C1572.91 464.391 1567.88 463.39 1563.19 461.445C1558.5 459.501 1554.24 456.651 1550.65 453.058C1547.06 449.465 1544.22 445.201 1542.28 440.508C1540.34 435.815 1539.35 430.786 1539.35 425.709V337.477C1539.35 324.321 1544.58 311.705 1553.88 302.403C1563.18 293.101 1575.8 287.875 1588.96 287.875H1735.65C1743.34 287.875 1750.72 284.82 1756.15 279.381C1761.59 273.943 1764.65 266.567 1764.65 258.876V254.704C1764.65 247.013 1761.59 239.637 1756.15 234.199C1750.72 228.761 1743.34 225.706 1735.65 225.706H1587.67C1574.85 225.706 1562.57 220.615 1553.51 211.555C1544.44 202.494 1539.35 190.205 1539.35 177.392V110.432C1539.35 105.355 1540.34 100.326 1542.28 95.6328C1544.22 90.94 1547.06 86.6753 1550.65 83.0827C1554.24 79.49 1558.5 76.6399 1563.19 74.6953C1567.88 72.7507 1572.91 71.7498 1577.98 71.7498ZM272.323 545C314.578 544.875 356.232 534.987 394.035 516.108C431.838 497.229 464.766 469.87 490.251 436.165C519.411 396.408 535.274 348.459 535.577 299.155V267.53C535.63 262.032 534.581 256.579 532.493 251.492C530.406 246.406 527.321 241.789 523.422 237.913L437.147 151.432C432.845 147.094 427.633 143.766 421.887 141.691C416.141 139.615 410.005 138.843 403.924 139.431C393.776 140.543 384.337 145.172 377.244 152.513L291.69 238.067C287.815 241.919 284.745 246.503 282.658 251.552C280.571 256.601 279.509 262.015 279.534 267.478V311.208C279.534 318.899 282.589 326.275 288.028 331.713C293.466 337.151 300.842 340.207 308.533 340.207H316.053C322.46 340.207 328.604 337.661 333.134 333.131C337.665 328.601 340.21 322.456 340.21 316.05V277.058L405.779 211.489L471.348 277.058V287.72C471.629 315.117 465.877 342.24 454.501 367.164C443.125 392.089 426.403 414.204 405.521 431.941C368.286 463.041 321.352 480.149 272.838 480.307H270.263C162.612 479.019 70.4654 391.096 64.8511 283.754C63.2505 255.544 67.4333 227.305 77.1426 200.77C86.852 174.235 101.883 149.965 121.313 129.45C140.742 108.935 164.16 92.6087 190.129 81.4728C216.097 70.3369 244.068 64.6269 272.323 64.6933H280.513C286.92 64.6933 293.064 62.1482 297.594 57.6179C302.125 53.0876 304.67 46.9432 304.67 40.5363V28.9987C304.67 21.3167 301.622 13.9485 296.194 8.51171C290.767 3.07488 283.405 0.0136448 275.723 0L270.572 0C216.349 0.256203 163.441 16.7216 118.648 47.2801C73.8554 77.8386 39.2243 121.094 19.2055 171.487C-0.813272 221.88 -5.30502 277.108 6.30755 330.074C17.9201 383.04 45.1064 431.322 84.3724 468.718C134.199 516.83 200.539 544.066 269.799 544.845L272.323 545Z" fill="#FA6060"/>
</svg>
